<svg width="521" height="268" viewBox="0 0 521 268" fill="none" xmlns="http://www.w3.org/2000/svg">
<path d="M263.203 4.76802C262.718 3.69195 261.648 3 260.467 3C259.287 3 258.217 3.69195 257.732 4.76802L221.632 84.9207L81.4376 40.5202C80.058 40.0833 78.5631 40.6935 77.8833 41.9711C77.2036 43.2487 77.5328 44.8294 78.666 45.7294L163.12 112.805L5.66229 130.643C4.14581 130.815 3 132.098 3 133.624C3 135.15 4.14581 136.433 5.66229 136.605L163.12 154.443L78.666 221.519C77.5328 222.419 77.2036 223.999 77.8833 225.277C78.5631 226.555 80.058 227.165 81.4376 226.728L221.632 182.327L257.732 262.48C258.217 263.556 259.287 264.248 260.467 264.248C261.648 264.248 262.718 263.556 263.203 262.48L299.303 182.327L439.497 226.728C440.877 227.165 442.372 226.555 443.052 225.277C443.731 223.999 443.402 222.419 442.269 221.519L357.815 154.443L515.273 136.605C516.789 136.433 517.935 135.15 517.935 133.624C517.935 132.098 516.789 130.815 515.273 130.643L357.815 112.805L442.269 45.7294C443.402 44.8294 443.731 43.2487 443.052 41.9711C442.372 40.6935 440.877 40.0833 439.497 40.5202L299.303 84.9207L263.203 4.76802Z" fill="black" stroke="white" stroke-width="6" stroke-linejoin="round"/>
</svg>
