<svg width="180" height="181" viewBox="0 0 180 181" fill="none" xmlns="http://www.w3.org/2000/svg">
<path d="M6.37221 105.488C4.92397 105.973 4.07101 107.468 4.39097 108.961C4.71093 110.455 6.10167 111.469 7.62138 111.318L50.3893 107.063L17.3126 134.506C16.1372 135.482 15.882 137.184 16.7198 138.461C17.5577 139.738 19.221 140.182 20.5835 139.492L58.9264 120.075L37.9969 157.613C37.2532 158.947 37.6302 160.627 38.8727 161.515C40.1152 162.403 41.8265 162.216 42.8478 161.08L71.5872 129.124L65.6316 171.688C65.4199 173.2 66.3783 174.63 67.8577 175.01C69.3371 175.389 70.8652 174.596 71.4073 173.168L86.6619 132.988L96.4845 174.829C96.8335 176.316 98.2438 177.303 99.7602 177.122C101.277 176.942 102.415 175.65 102.405 174.123L102.115 131.145L126.389 166.613C127.251 167.873 128.923 168.284 130.272 167.568C131.62 166.852 132.216 165.236 131.654 163.816L115.858 123.845L151.306 148.149C152.565 149.013 154.272 148.792 155.271 147.637C156.27 146.482 156.242 144.76 155.205 143.639L126.037 112.073L167.87 121.931C169.356 122.281 170.869 121.459 171.383 120.021C171.897 118.583 171.249 116.988 169.877 116.316L131.275 97.4194L173.844 91.4994C175.357 91.289 176.47 89.9758 176.43 88.4491C176.39 86.9225 175.209 85.6696 173.688 85.5389L130.866 81.8626L168.423 60.9646C169.757 60.222 170.321 58.5954 169.732 57.1863C169.143 55.7772 167.589 55.0354 166.123 55.4633L124.865 67.5041L152.336 34.4504C153.312 33.2759 153.25 31.5555 152.192 30.4543C151.134 29.353 149.418 29.2225 148.205 30.1511L114.083 56.2829L127.758 15.5377C128.244 14.0898 127.565 12.508 126.18 11.8634C124.796 11.2188 123.148 11.7172 122.353 13.0211L99.9749 49.7146L98.008 6.78066C97.9381 5.25505 96.7332 4.02544 95.2094 3.9245C93.6855 3.82359 92.329 4.88357 92.0585 6.38665L84.4468 48.6863L67.1032 9.36207C66.4869 7.96472 64.9192 7.25339 63.4618 7.70977C62.0044 8.16615 61.1224 9.64457 61.4132 11.1438L69.5959 53.3367L39.2178 22.9332C38.1384 21.8529 36.4196 21.7559 35.2255 22.7079C34.0313 23.66 33.743 25.3572 34.5557 26.6502L57.4277 63.0379L18.118 45.6613C16.7212 45.0439 15.0834 45.5743 14.3139 46.8935C13.5443 48.2126 13.8885 49.8993 15.1134 50.8114L49.5857 76.4797L6.65335 74.4768C5.1278 74.4056 3.79226 75.4919 3.55116 76.9999C3.31007 78.508 4.24037 79.9565 5.71207 80.3645L47.1289 91.8466L6.37221 105.488Z" fill="black" stroke="white" stroke-width="6" stroke-linejoin="round"/>
</svg>
