<svg width="426" height="764" viewBox="0 0 426 764" fill="none" xmlns="http://www.w3.org/2000/svg">
<path d="M420 592H423V589V6V3H420L6 3L3 3V6V589V592H6H420Z" fill="black" stroke="white" stroke-width="6"/>
<path d="M2.99982 588.833C2.99982 684.275 97.5874 760.665 212.928 760.665C328.269 760.665 422.856 684.275 422.856 588.833C422.856 493.39 328.269 417 212.928 417C97.5874 417 2.99982 493.39 2.99982 588.833Z" fill="black" stroke="white" stroke-width="6"/>
<path d="M130.372 235.488C128.924 235.973 128.071 237.468 128.391 238.961C128.711 240.455 130.102 241.469 131.621 241.318L174.389 237.063L141.313 264.506C140.137 265.482 139.882 267.184 140.72 268.461C141.558 269.738 143.221 270.182 144.583 269.492L182.926 250.075L161.997 287.613C161.253 288.947 161.63 290.627 162.873 291.515C164.115 292.403 165.827 292.216 166.848 291.08L195.587 259.124L189.632 301.688C189.42 303.2 190.378 304.63 191.858 305.01C193.337 305.389 194.865 304.596 195.407 303.168L210.662 262.988L220.484 304.829C220.833 306.316 222.244 307.303 223.76 307.122C225.277 306.942 226.415 305.65 226.405 304.123L226.115 261.145L250.389 296.613C251.251 297.873 252.923 298.284 254.272 297.568C255.62 296.852 256.216 295.236 255.654 293.816L239.858 253.845L275.306 278.149C276.565 279.013 278.272 278.792 279.271 277.637C280.27 276.482 280.242 274.76 279.205 273.639L250.037 242.073L291.87 251.931C293.356 252.281 294.869 251.459 295.383 250.021C295.897 248.583 295.249 246.988 293.877 246.316L255.275 227.419L297.844 221.499C299.357 221.289 300.47 219.976 300.43 218.449C300.39 216.922 299.209 215.67 297.688 215.539L254.866 211.863L292.423 190.965C293.757 190.222 294.321 188.595 293.732 187.186C293.143 185.777 291.589 185.035 290.123 185.463L248.865 197.504L276.336 164.45C277.312 163.276 277.25 161.555 276.192 160.454C275.134 159.353 273.418 159.223 272.205 160.151L238.083 186.283L251.758 145.538C252.244 144.09 251.565 142.508 250.18 141.863C248.796 141.219 247.148 141.717 246.353 143.021L223.975 179.715L222.008 136.781C221.938 135.255 220.733 134.025 219.209 133.925C217.685 133.824 216.329 134.884 216.059 136.387L208.447 178.686L191.103 139.362C190.487 137.965 188.919 137.253 187.462 137.71C186.004 138.166 185.122 139.645 185.413 141.144L193.596 183.337L163.218 152.933C162.138 151.853 160.42 151.756 159.225 152.708C158.031 153.66 157.743 155.357 158.556 156.65L181.428 193.038L142.118 175.661C140.721 175.044 139.083 175.574 138.314 176.893C137.544 178.213 137.888 179.899 139.113 180.811L173.586 206.48L130.653 204.477C129.128 204.406 127.792 205.492 127.551 207C127.31 208.508 128.24 209.956 129.712 210.364L171.129 221.847L130.372 235.488Z" fill="black" stroke="white" stroke-width="6" stroke-linejoin="round"/>
</svg>
