<svg width="60" height="21" viewBox="0 0 60 21" fill="none" xmlns="http://www.w3.org/2000/svg">
<path d="M0.367403 18.9089C0.367984 19.7373 1.04003 20.4084 1.86845 20.4078L15.3685 20.3983C16.1969 20.3978 16.868 19.7257 16.8674 18.8973C16.8668 18.0689 16.1948 17.3978 15.3663 17.3984L3.36635 17.4068L3.35793 5.40677C3.35735 4.57835 2.68531 3.90724 1.85688 3.90782C1.02845 3.90841 0.357351 4.58045 0.357932 5.40888L0.367403 18.9089ZM57.8785 4.91715C58.6743 5.14736 59.5061 4.68887 59.7363 3.89307C59.9665 3.09728 59.508 2.26553 58.7122 2.03531L57.8785 4.91715ZM2.92881 19.9677C8.37228 14.5166 18.1523 9.58041 28.6836 6.59794C39.2214 3.6136 50.1617 2.68475 57.8785 4.91715L58.7122 2.03531C50.2178 -0.42204 38.6409 0.660018 27.8661 3.71146C17.0847 6.76478 6.75631 11.8892 0.805999 17.8479L2.92881 19.9677Z" fill="white"/>
</svg>
